<?xml version="1.0" encoding="utf-8"?>
<!-- Generator: Adobe Illustrator 25.1.0, SVG Export Plug-In . SVG Version: 6.00 Build 0)  -->
<svg version="1.1" id="Layer_1" xmlns="http://www.w3.org/2000/svg" xmlns:xlink="http://www.w3.org/1999/xlink" x="0px" y="0px"
	 viewBox="0 0 512 512" style="enable-background:new 0 0 512 512;" xml:space="preserve">
<style type="text/css">
	.st0{fill:#EC663B;}
	.st1{fill:url(#SVGID_1_);}
	.st2{fill:#F5F4F5;}
	.st3{fill:#5C626B;}
	.st4{fill:#535860;}
	.st5{fill:#DFE0E0;}
	.st6{fill:#C9CACA;}
	.st7{fill:#FBE067;}
	.st8{fill:#E7CE5F;}
	.st9{fill:#494F57;}
	.st10{fill:#CB556A;}
	.st11{fill:#E15F76;}
	.st12{fill:#F7C2AD;}
</style>
<g>
	<path class="st0" d="M361.9,288.6c0,11-8.9,19.9-19.6,19.9H50.9c-10.7,0-19.6-8.9-19.6-19.9V46.8c0-11,8.9-19.9,19.6-19.9h291.3
		c10.7,0,19.6,8.9,19.6,19.9L361.9,288.6L361.9,288.6z"/>
	
		<linearGradient id="SVGID_1_" gradientUnits="userSpaceOnUse" x1="102.3351" y1="-171.7244" x2="102.3351" y2="-734.8245" gradientTransform="matrix(0.5 0 0 0.5 145.4449 394.3622)">
		<stop  offset="0" style="stop-color:#D94A2E"/>
		<stop  offset="1" style="stop-color:#EC663B"/>
	</linearGradient>
	<path class="st1" d="M361.9,288.6c0,11-8.9,19.9-19.6,19.9H50.9c-10.7,0-19.6-8.9-19.6-19.9V46.8c0-11,8.9-19.9,19.6-19.9h291.3
		c10.7,0,19.6,8.9,19.6,19.9L361.9,288.6L361.9,288.6z"/>
	<path class="st2" d="M88.9,268.1c-11,0-19.6-8.9-19.6-19.9V89.4c0-11,8.9-19.9,19.6-19.9s19.6,8.9,19.6,19.9v158.8
		C108.8,259.2,99.9,268.1,88.9,268.1z"/>
	<path class="st2" d="M263.9,166.5l57.5-66.1c7-8.3,6.4-20.8-1.8-28.2c-8.3-7.3-20.5-6.4-27.8,1.8l-54.2,62.4l-54.2-62.4
		c-7-8.3-19.6-9.2-27.8-1.8c-8.3,7.3-8.9,19.9-1.8,28.2l57.5,66.4l-57.5,66.1c-7,8.3-6.4,20.8,1.8,28.2c3.7,3.4,8.3,4.9,12.9,4.9
		c5.5,0,11-2.1,15-6.7l54.2-62.4l54.2,62.4c4,4.6,9.5,6.7,15,6.7c4.6,0,9.2-1.5,12.9-4.9c8.3-7.3,8.9-19.9,1.8-28.2L263.9,166.5z"/>
</g>
<path class="st3" d="M251.2,376.3l-19,19l-35.8-35.8c-5.2-5.2-5.2-13.7,0-19c5.2-5.2,13.7-5.2,19,0L251.2,376.3z"/>
<path class="st4" d="M202.4,337c-2.2,0.6-4.3,1.7-6,3.5c-5.2,5.2-5.2,13.7,0,19l35.8,35.8l9.5-9.5L205.9,350
	C202.3,346.5,201.2,341.5,202.4,337z"/>
<path class="st5" d="M232.1,395.3l19-19l51.8,51.8l-19,19L232.1,395.3z"/>
<path class="st6" d="M232.1,395.3l9.5-9.5l51.8,51.8l-9.5,9.5L232.1,395.3z"/>
<path class="st7" d="M267.8,376.4L232.2,412c-1.1,1.1-2.9,1.1-4,0l-12.7-12.7c-1.1-1.1-1.1-2.9,0-4l35.6-35.6c1.1-1.1,2.9-1.1,4,0
	l12.7,12.7C268.8,373.5,268.8,375.3,267.8,376.4z"/>
<path class="st8" d="M241.4,398.9l-12.7-12.7c-1.1-1.1-1.1-2.9,0-4l-13.1,13.1c-1.1,1.1-1.1,2.9,0,4l12.7,12.7c1.1,1.1,2.9,1.1,4,0
	l13.1-13.1C244.2,399.9,242.4,399.9,241.4,398.9z"/>
<path class="st3" d="M424.3,376.3l19,19l35.8-35.8c5.2-5.2,5.2-13.7,0-19c-5.2-5.2-13.7-5.2-19,0L424.3,376.3z"/>
<path class="st4" d="M473,337c2.2,0.6,4.3,1.7,6,3.5c5.2,5.2,5.2,13.7,0,19l-35.8,35.8l-9.5-9.5l35.8-35.8
	C473.1,346.5,474.2,341.5,473,337z"/>
<path class="st5" d="M391.5,447.1l-18.9-19l51.8-51.8l19,19L391.5,447.1z"/>
<path class="st6" d="M382,437.6l51.8-51.8l9.5,9.5l-51.8,51.8L382,437.6z"/>
<path class="st7" d="M407.7,376.4l35.6,35.6c1.1,1.1,2.9,1.1,4,0l12.7-12.7c1.1-1.1,1.1-2.9,0-4l-35.6-35.6c-1.1-1.1-2.9-1.1-4,0
	l-12.7,12.7C406.6,373.5,406.6,375.3,407.7,376.4z"/>
<path class="st8" d="M434.1,398.9l12.7-12.7c1.1-1.1,1.1-2.9,0-4l13.1,13.1c1.1,1.1,1.1,2.9,0,4L447.2,412c-1.1,1.1-2.9,1.1-4,0
	l-13.1-13.1C431.3,399.9,433,399.9,434.1,398.9z"/>
<path class="st9" d="M235.2,486.5c0-56.6,45.9-102.5,102.5-102.5s102.5,45.9,102.5,102.5H235.2z"/>
<path class="st4" d="M440.2,486.5H271.6l97.6-97.6C410.4,402.2,440.2,440.8,440.2,486.5z"/>
<path class="st10" d="M305.7,486.5h-34.1l97.6-97.6c8.2,2.7,16.1,6.4,23.2,10.8L305.7,486.5z"/>
<path class="st3" d="M235.2,486.5h168.6l-97.6-97.6C265.1,402.2,235.2,440.8,235.2,486.5z"/>
<path class="st4" d="M347.4,384.5c-3.1-0.3-6.4-0.5-9.6-0.5c-56.6,0-102.5,45.9-102.5,102.5h19.3
	C254.4,433.1,295.3,389.3,347.4,384.5z"/>
<path class="st11" d="M369.7,486.5h34.1l-97.6-97.6c-8.2,2.7-16.1,6.4-23.2,10.8L369.7,486.5z"/>
<path class="st10" d="M311.8,394.4l-5.6-5.6c-8.2,2.7-16.1,6.4-23.2,10.8l8.1,8.1C297.5,402.6,304.4,398.1,311.8,394.4z"/>
<path class="st3" d="M447.9,290.7c0,60.8-49.3,110.1-110.1,110.1s-110.1-49.3-110.1-110.1S277,180.6,337.8,180.6
	S447.9,229.8,447.9,290.7z"/>
<path class="st4" d="M246.1,290.7c0-57.7,44.4-105.1,100.9-109.7c-3-0.3-6.1-0.4-9.2-0.4c-60.8,0-110.1,49.3-110.1,110.1
	S277,400.8,337.8,400.8c3.1,0,6.2-0.1,9.2-0.4C290.5,395.7,246.1,348.4,246.1,290.7z"/>
<path class="st4" d="M227.6,290.7c0,2.7,0.1,5.4,0.3,8c0.4,0,0.9,0.1,1.3,0.1h217.1c0.4,0,0.9,0,1.3-0.1c0.2-2.7,0.3-5.3,0.3-8
	c0-8.4-0.9-16.5-2.7-24.4H230.3C228.5,274.1,227.6,282.3,227.6,290.7z"/>
<path class="st12" d="M378.1,337.5l-13.7-5.7c-17-7.1-36.2-7.1-53.2,0l-13.7,5.7c-16.4,6.8-34.5-5.2-34.5-23c0-13.8,11.2-25,25-25
	h99.9c13.8,0,25,11.2,25,25C412.6,332.2,394.5,344.4,378.1,337.5z"/>
<path class="st11" d="M229.1,289.5h217.1c4.3,0,7.7-3.6,7.4-7.9c-1-12-3.9-23.5-8.4-34.1c-1.1-2.7-3.8-4.5-6.8-4.5H237
	c-2.9,0-5.6,1.7-6.8,4.5c-4.6,10.6-7.4,22.1-8.4,34.1C221.5,285.8,224.8,289.5,229.1,289.5z"/>
<path class="st10" d="M240.3,281.6c1-12,3.9-23.5,8.4-34.1c1.1-2.7,3.8-4.5,6.8-4.5H237c-2.9,0-5.6,1.7-6.8,4.5
	c-4.6,10.6-7.4,22.1-8.4,34.1c-0.3,4.3,3.1,7.9,7.4,7.9h18.5C243.3,289.5,239.9,285.8,240.3,281.6z"/>
<g>
	<path class="st9" d="M208.5,352.7l-9.5,9.5l6.6,6.6l9.5-9.5c1.8-1.8,1.8-4.8,0-6.6S210.3,350.8,208.5,352.7z"/>
	<path class="st9" d="M219.4,363.5l-9.5,9.5l6.6,6.6l9.4-9.5c1.8-1.8,1.8-4.8,0-6.6C224.1,361.7,221.2,361.7,219.4,363.5z"/>
	<path class="st9" d="M466.9,352.7c-1.8-1.8-4.8-1.8-6.6,0c-1.8,1.8-1.8,4.8,0,6.6l9.5,9.5l6.6-6.6L466.9,352.7z"/>
	<path class="st9" d="M456,363.5c-1.8-1.8-4.8-1.8-6.6,0c-1.8,1.8-1.8,4.8,0,6.6l9.5,9.5l6.6-6.6L456,363.5z"/>
	<path class="st9" d="M377,317.4c-2.5,0-4.5-2-4.5-4.5v-7c0-2.5,2-4.5,4.5-4.5s4.5,2,4.5,4.5v7C381.4,315.4,379.4,317.4,377,317.4z"
		/>
	<path class="st9" d="M298.5,317.4c-2.5,0-4.5-2-4.5-4.5v-7c0-2.5,2-4.5,4.5-4.5s4.5,2,4.5,4.5v7C303,315.4,301,317.4,298.5,317.4z"
		/>
</g>
<g transform="translate(1.4065934065934016 1.4065934065934016) scale(2.81 2.81)">
	<path class="st4" d="M25.8,163.2l-14.3-21.1c-0.2-0.2-0.2-0.5,0-0.7c0.1-0.2,0.4-0.4,0.6-0.4h5.8c0.2-8.7,3.8-19,9.4-27.1
		c6.9-9.9,16.1-15.4,25.9-15.4c0.3,0,0.6,0.2,0.7,0.6c0,0.1,0,0.1,0,0.2c0,0.3-0.2,0.5-0.4,0.7c-12.5,5.7-18.9,19.5-19.1,41.1h6.2
		c0.3,0,0.5,0.1,0.6,0.4c0.1,0.2,0.1,0.5,0,0.7L27,163.2c-0.1,0.2-0.4,0.3-0.6,0.3S25.9,163.4,25.8,163.2z"/>
</g>
</svg>
